# xmcd
#
# Track frame offsets:
#	150
#	14812
#	29077
#	48561
#	63379
#	77429
#	90906
#	108669
#	124594
#	141518
#	155329
#	173451
#	192324
#
# Disc length: 2789 seconds
#
# Revision: 3
# Processed by: cddbd v1.5.2PL0 Copyright (c) Steve Scherf et al.
# Submitted via: audiograbber 1.83.01
#
DISCID=ac0ae30d
DTITLE=Mary Duff - Heartbreaker
DYEAR=2002
DGENRE=Country
TTITLE0=Heartbreaker
TTITLE1=Forever Isn't Long Enough For Me
TTITLE2=Another Town
TTITLE3=Will You Walk With Me
TTITLE4=You're So Far Away
TTITLE5=Walking On The Moon
TTITLE6=Wish You Were Here
TTITLE7=Time To Learn
TTITLE8=Future Road
TTITLE9=We Made The Nails
TTITLE10=Simply Being You
TTITLE11=Strawberry Wine
TTITLE12=Someone's Child
EXTD=
EXTT0=
EXTT1=
EXTT2=
EXTT3=
EXTT4=
EXTT5=
EXTT6=
EXTT7=
EXTT8=
EXTT9=
EXTT10=
EXTT11=
EXTT12=
PLAYORDER=
